<svg width="15" height="13" viewBox="0 0 15 13" fill="none" xmlns="http://www.w3.org/2000/svg">
<g clip-path="url(#clip0_1558_3)">
<path d="M4.2147 2.62604C4.21454 2.90463 4.08642 3.17175 3.85852 3.36864C3.63062 3.56554 3.32162 3.67607 2.99948 3.67593C2.67735 3.67579 2.36847 3.56499 2.1408 3.3679C1.91313 3.17081 1.78532 2.90358 1.78548 2.62499C1.78564 2.34641 1.91376 2.07928 2.14166 1.88239C2.36956 1.6855 2.67856 1.57496 3.0007 1.5751C3.32283 1.57524 3.63171 1.68605 3.85938 1.88313C4.08705 2.08022 4.21486 2.34746 4.2147 2.62604ZM4.25114 4.45376H1.82192V11.0294H4.25114V4.45376ZM8.08931 4.45376H5.67224V11.0294H8.06502V7.57875C8.06502 5.65649 10.9619 5.47792 10.9619 7.57875V11.0294H13.3607V6.86447C13.3607 3.62394 9.07315 3.74473 8.06502 5.33611L8.08931 4.45376Z" fill="#2B2B2B"/>
</g>
<defs>
<clipPath id="clip0_1558_3">
<rect width="14.5753" height="12.605" fill="white"/>
</clipPath>
</defs>
</svg>
